<svg id="레이어_1" data-name="레이어 1" xmlns="http://www.w3.org/2000/svg" viewBox="0 0 108.24 82.15"><defs><style>.cls-1{fill:#0058c1;}.cls-2{fill:#0084ff;}</style></defs><circle class="cls-1" cx="97.66" cy="40.07" r="10.58"/><path class="cls-1" d="M50.18,45h0a10.58,10.58,0,0,1,0-15L76.29,4a10.58,10.58,0,0,1,15,0h0a10.58,10.58,0,0,1,0,15L65.14,45A10.58,10.58,0,0,1,50.18,45Z"/><path class="cls-2" d="M58.68,79.05h0a10.58,10.58,0,0,1,0-15l11.49-11.5a10.58,10.58,0,0,1,15,0h0a10.58,10.58,0,0,1,0,15L73.64,79.05A10.58,10.58,0,0,1,58.68,79.05Z"/><circle class="cls-1" cx="10.58" cy="42.89" r="10.58"/><path class="cls-2" d="M50.37,3.1h0a10.58,10.58,0,0,1,0,15L39,29.44a10.56,10.56,0,0,1-15,0h0a10.58,10.58,0,0,1,0-15L35.41,3.1A10.58,10.58,0,0,1,50.37,3.1Z"/><path class="cls-2" d="M45.36,49.85h0a10.56,10.56,0,0,1,0,15L34,76.2a10.58,10.58,0,0,1-15,0h0a10.58,10.58,0,0,1,0-15L30.4,49.85A10.58,10.58,0,0,1,45.36,49.85Z"/></svg>